# xmcd CD database file
#
# Track frame offsets:
#	150
#	76500
#	92937
#	148008
#	159131
#	189583
#	193976
#	196524
#	206476
#	235797
#	237591
#	283623
#
# Disc length: 3987 seconds
#
# Revision: 0
# Processed by: cddbd v1.5.1PL0 Copyright (c) Steve Scherf et al.
# Submitted via: CDex 1.51
#
DISCID=9d0f910c
DTITLE=山本正之 - ライヴ刊・山本朝廷34
DYEAR=1900
DGENRE=
TTITLE0=【TALK】
TTITLE1=ワナゲタフニョコ
TTITLE2=【TALK】
TTITLE3=うぐいす谷ミューシックホール
TTITLE4=【TALK】
TTITLE5=憧れの遣唐使航路
TTITLE6=【TALK】
TTITLE7=あいこ先生
TTITLE8=【TALK】
TTITLE9=（チャッターギャングの芝居より）
TTITLE10=【TALK】
TTITLE11=大名古屋行進曲
EXTD=
EXTT0=
EXTT1=
EXTT2=
EXTT3=
EXTT4=
EXTT5=
EXTT6=
EXTT7=
EXTT8=
EXTT9=
EXTT10=
EXTT11=
PLAYORDER=
